<svg width="16.666992" height="13.333008" viewBox="0 0 16.667 13.333" fill="none" xmlns="http://www.w3.org/2000/svg" xmlns:xlink="http://www.w3.org/1999/xlink">
	<desc>
			Created with Pixso.
	</desc>
	<defs/>
	<path id="Vector" d="M11.66 1.66C12.28 1.66 12.82 1.33 13.11 0.83L15 0.83C15.46 0.83 15.83 1.2 15.83 1.66L15.83 3.43C14.39 3.8 13.33 5.11 13.33 6.66C13.33 8.21 14.39 9.52 15.83 9.89L15.83 11.66C15.83 12.12 15.46 12.5 15 12.5L13.11 12.5C12.82 12 12.28 11.66 11.66 11.66C11.04 11.66 10.51 12 10.22 12.5L1.66 12.5C1.2 12.5 0.83 12.12 0.83 11.66L0.83 9.89C2.27 9.52 3.33 8.21 3.33 6.66C3.33 5.11 2.27 3.8 0.83 3.43L0.83 1.66C0.83 1.2 1.2 0.83 1.66 0.83L10.22 0.83C10.51 1.33 11.04 1.66 11.66 1.66ZM14.16 6.66C14.16 5.28 15.28 4.16 16.66 4.16L16.66 1.66C16.66 0.74 15.92 0 15 0L12.5 0C12.5 0.45 12.12 0.83 11.66 0.83C11.2 0.83 10.83 0.45 10.83 0L1.66 0C0.74 0 0 0.74 0 1.66L0 4.16C1.38 4.16 2.5 5.28 2.5 6.66C2.5 8.04 1.38 9.16 0 9.16L0 11.66C0 12.58 0.74 13.33 1.66 13.33L10.83 13.33C10.83 12.87 11.2 12.5 11.66 12.5C12.12 12.5 12.5 12.87 12.5 13.33L15 13.33C15.92 13.33 16.66 12.58 16.66 11.66L16.66 9.16C15.28 9.16 14.16 8.04 14.16 6.66ZM11.66 4.16C12.12 4.16 12.5 3.79 12.5 3.33C12.5 2.87 12.12 2.5 11.66 2.5C11.2 2.5 10.83 2.87 10.83 3.33C10.83 3.79 11.2 4.16 11.66 4.16ZM11.66 7.5C12.12 7.5 12.5 7.12 12.5 6.66C12.5 6.2 12.12 5.83 11.66 5.83C11.2 5.83 10.83 6.2 10.83 6.66C10.83 7.12 11.2 7.5 11.66 7.5ZM12.5 10C12.5 10.46 12.12 10.83 11.66 10.83C11.2 10.83 10.83 10.46 10.83 10C10.83 9.54 11.2 9.16 11.66 9.16C12.12 9.16 12.5 9.54 12.5 10Z" fill="#707070" fill-opacity="1.000000" fill-rule="evenodd"/>
</svg>
