<svg width="40.125977" height="40.125977" viewBox="0 0 40.126 40.126" fill="none" xmlns="http://www.w3.org/2000/svg" xmlns:xlink="http://www.w3.org/1999/xlink">
	<desc>
			Created with Pixso.
	</desc>
	<defs/>
	<path id="Vector" d="M15.61 0C24.24 0 31.23 6.99 31.23 15.61C31.23 18.99 30.16 22.11 28.35 24.66L40.12 36.44L36.44 40.12L24.66 28.35C22.11 30.16 18.99 31.23 15.61 31.23C6.99 31.23 0 24.24 0 15.61C0 6.99 6.99 0 15.61 0ZM15.61 5.2C9.86 5.2 5.2 9.86 5.2 15.61C5.2 21.37 9.86 26.03 15.61 26.03C21.37 26.03 26.03 21.37 26.03 15.61C26.03 9.86 21.37 5.2 15.61 5.2Z" fill="#008294" fill-opacity="1.000000" fill-rule="nonzero"/>
</svg>
