<svg width="19.000000" height="20.000000" viewBox="0 0 19 20" fill="none" xmlns="http://www.w3.org/2000/svg" xmlns:xlink="http://www.w3.org/1999/xlink">
	<desc>
			Created with Pixso.
	</desc>
	<defs>
		<clipPath id="clip2_2351">
			<rect id="social_activities.svg" rx="0.000000" width="18.000000" height="19.000000" transform="translate(0.500000 0.500000)" fill="white" fill-opacity="0"/>
		</clipPath>
	</defs>
	<g clip-path="url(#clip2_2351)">
		<path id="Vector" d="M0.17 17.25C0.63 17.46 1.09 17.66 1.56 17.84C4 18.76 6.63 19.27 9.39 19.27C12.15 19.27 14.79 18.76 17.22 17.84C17.69 17.66 18.16 17.46 18.61 17.25L17.9 15.93L16.96 14.19L16.18 12.75L10.24 1.71L9.39 0.13L8.54 1.71L0.89 15.93L0.17 17.25ZM9.39 3.29L14.77 13.29C13.08 13.86 11.27 14.16 9.39 14.16C7.51 14.16 5.7 13.85 4.01 13.29L9.39 3.29ZM9.39 15.79C7.23 15.79 5.16 15.43 3.23 14.75L2.28 16.5C4.49 17.32 6.89 17.77 9.39 17.77C11.89 17.77 14.29 17.32 16.5 16.5L15.56 14.75C13.63 15.43 11.55 15.79 9.39 15.79ZM11 12C11.55 12 12 11.55 12 11C12 10.44 11.55 10 11 10C10.44 10 10 10.44 10 11C10 11.55 10.44 12 11 12ZM8.68 12C8.68 12.55 8.23 13 7.68 13C7.13 13 6.68 12.55 6.68 12C6.68 11.44 7.13 11 7.68 11C8.23 11 8.68 11.44 8.68 12ZM9.32 9C9.87 9 10.32 8.55 10.32 8C10.32 7.44 9.87 7 9.32 7C8.77 7 8.32 7.44 8.32 8C8.32 8.55 8.77 9 9.32 9Z" fill="#7A1D47" fill-opacity="1.000000" fill-rule="evenodd"/>
	</g>
</svg>
