<svg width="19.047852" height="20.000000" viewBox="0 0 19.0479 20" fill="none" xmlns="http://www.w3.org/2000/svg" xmlns:xlink="http://www.w3.org/1999/xlink">
	<desc>
			Created with Pixso.
	</desc>
	<defs>
		<clipPath id="clip2_2369">
			<rect id="health_and_wellness.svg" rx="0.000000" width="18.095238" height="19.047619" transform="translate(0.476190 0.476190)" fill="white" fill-opacity="0"/>
		</clipPath>
	</defs>
	<g clip-path="url(#clip2_2369)">
		<path id="Vector" d="M11.5 15.61C12.25 14.13 12.75 11.97 12.75 9.52C12.75 6.5 10.87 3.73 9.51 2.16C9.48 2.13 9.46 2.12 9.45 2.11C9.43 2.11 9.42 2.1 9.41 2.1C9.4 2.1 9.39 2.11 9.38 2.11C9.37 2.12 9.35 2.13 9.32 2.16C7.96 3.73 6.08 6.5 6.08 9.52C6.08 11.97 6.58 14.13 7.32 15.61C8.11 17.19 8.93 17.61 9.41 17.61C9.9 17.61 10.72 17.19 11.5 15.61ZM14.17 9.16C14.74 9.03 15.3 8.95 15.83 8.91C16.21 7.5 16.15 5.98 15.99 4.82C15.98 4.79 15.97 4.78 15.97 4.77C15.96 4.76 15.96 4.76 15.96 4.76C15.96 4.76 15.95 4.76 15.94 4.75C15.94 4.75 15.92 4.75 15.89 4.76C15.14 5 14.27 5.34 13.44 5.83C13.26 5.37 13.06 4.94 12.84 4.52C13.77 3.99 14.71 3.63 15.46 3.4C16.37 3.12 17.27 3.68 17.4 4.62C17.56 5.74 17.65 7.3 17.31 8.87C17.35 8.87 17.39 8.87 17.43 8.87C18.38 8.9 19.04 9.73 18.85 10.66C18.52 12.36 17.69 14.99 15.66 16.61C13.54 18.29 11.22 19.18 9.52 19.11C7.81 19.18 5.5 18.29 3.38 16.61C1.34 14.99 0.52 12.36 0.18 10.66C0 9.73 0.66 8.9 1.61 8.87C1.65 8.87 1.69 8.87 1.73 8.87C1.39 7.3 1.48 5.74 1.64 4.62C1.77 3.68 2.67 3.12 3.57 3.4C4.28 3.62 5.16 3.95 6.03 4.43C5.81 4.84 5.61 5.28 5.43 5.73C4.65 5.29 3.85 4.98 3.15 4.76C3.12 4.75 3.1 4.75 3.09 4.75C3.08 4.76 3.08 4.76 3.08 4.76C3.08 4.76 3.07 4.76 3.07 4.77C3.06 4.78 3.06 4.79 3.05 4.82C2.89 5.98 2.83 7.5 3.21 8.91C3.67 8.94 4.16 9.01 4.66 9.11C4.82 5.73 6.88 2.8 8.24 1.23C8.87 0.49 9.95 0.49 10.59 1.23C11.95 2.81 14.03 5.75 14.17 9.16ZM12.37 16.99C13.33 15.46 13.99 13.21 14.14 10.63C15.27 10.33 16.44 10.27 17.38 10.3C17.41 10.3 17.43 10.31 17.44 10.31C17.44 10.31 17.45 10.32 17.45 10.32C17.45 10.32 17.45 10.33 17.45 10.33C17.45 10.34 17.46 10.36 17.45 10.39C17.14 12 16.39 14.2 14.77 15.49C13.96 16.14 13.13 16.64 12.37 16.99ZM6.37 16.85C5.69 16.51 4.98 16.06 4.27 15.49C2.64 14.2 1.9 12 1.58 10.39C1.58 10.36 1.58 10.34 1.58 10.33C1.58 10.33 1.59 10.32 1.59 10.32C1.59 10.32 1.59 10.31 1.6 10.31C1.61 10.31 1.62 10.3 1.66 10.3C2.54 10.27 3.62 10.32 4.68 10.58C4.82 13.09 5.45 15.31 6.37 16.85Z" fill="#31775A" fill-opacity="1.000000" fill-rule="evenodd"/>
	</g>
</svg>
