<svg width="18.181641" height="20.000000" viewBox="0 0 18.1816 20" fill="none" xmlns="http://www.w3.org/2000/svg" xmlns:xlink="http://www.w3.org/1999/xlink">
	<desc>
			Created with Pixso.
	</desc>
	<defs>
		<clipPath id="clip2_2357">
			<rect id="hobbies_and_passions.svg" rx="0.000000" width="17.272728" height="19.090910" transform="translate(0.454545 0.454545)" fill="white" fill-opacity="0"/>
		</clipPath>
	</defs>
	<g clip-path="url(#clip2_2357)">
		<path id="Vector" d="M5.07 2.23L6.02 3.25C6.06 3.28 6.1 3.32 6.14 3.36L7.53 4.8L8.67 2.23L5.07 2.23ZM3.36 2.39L4.6 3.73L0.6 12.44C0.44 12.78 0.51 13.18 0.77 13.45L2.11 14.84C2.13 14.87 2.15 14.9 2.18 14.93L5.85 18.71C6.15 19.02 6.56 19.19 6.99 19.19L11.83 19.19C12.17 19.19 12.45 18.94 12.5 18.61C12.6 18.55 12.69 18.47 12.76 18.36L17.46 11.58C17.85 11.02 17.5 10.27 16.86 10.17L15.77 6.81C15.58 6.21 14.84 5.99 14.34 6.38L9.89 9.9C9.79 9.98 9.72 10.06 9.66 10.16L6.75 10.16C6.71 10.16 6.67 10.16 6.64 10.16L8.3 6.42C8.33 6.35 8.35 6.29 8.36 6.22C8.4 6.16 8.44 6.1 8.47 6.03L10.2 2.14C10.47 1.54 10.03 0.86 9.37 0.86L4.02 0.86C3.23 0.86 2.81 1.81 3.36 2.39ZM10.85 17.83L6.03 11.62C6.02 11.61 6.01 11.6 6.01 11.59L4.39 15.25L6.82 17.76C6.87 17.8 6.93 17.83 6.99 17.83L10.85 17.83ZM1.96 12.73L5.61 4.81L6.9 6.2L3.37 14.18L1.96 12.73ZM7.67 11.52L12 17.08L15.84 11.53L10.45 11.53C10.42 11.53 10.38 11.52 10.35 11.52L7.67 11.52ZM15.43 10.16L11.77 10.16L14.68 7.86L15.43 10.16Z" fill="#FFAD43" fill-opacity="1.000000" fill-rule="evenodd"/>
	</g>
</svg>
