<svg width="135.000000" height="40.000000" viewBox="0 0 135 40" fill="none" xmlns="http://www.w3.org/2000/svg" xmlns:xlink="http://www.w3.org/1999/xlink">
	<desc>
			Created with Pixso.
	</desc>
	<defs>
		<clipPath id="clip4_7332">
			<rect id="download_en-US.svg" rx="0.000000" width="134.000000" height="39.000000" transform="translate(0.500000 0.500000)" fill="white" fill-opacity="0"/>
		</clipPath>
		<linearGradient x1="21.800148" y1="8.710707" x2="5.020143" y2="25.490709" id="paint_linear_4_7337_0" gradientUnits="userSpaceOnUse">
			<stop stop-color="#00A0FF"/>
			<stop offset="0.010000" stop-color="#00A1FF"/>
			<stop offset="0.260000" stop-color="#00BEFF"/>
			<stop offset="0.510000" stop-color="#00D2FF"/>
			<stop offset="0.760000" stop-color="#00DFFF"/>
			<stop offset="1.000000" stop-color="#00E3FF"/>
		</linearGradient>
		<linearGradient x1="33.830391" y1="20.000704" x2="9.640390" y2="20.000704" id="paint_linear_4_7338_0" gradientUnits="userSpaceOnUse">
			<stop stop-color="#FFE000"/>
			<stop offset="0.410000" stop-color="#FFBD00"/>
			<stop offset="0.780000" stop-color="#FFA500"/>
			<stop offset="1.000000" stop-color="#FF9C00"/>
		</linearGradient>
		<linearGradient x1="24.829451" y1="22.300001" x2="2.069450" y2="45.050003" id="paint_linear_4_7339_0" gradientUnits="userSpaceOnUse">
			<stop stop-color="#FF3A44"/>
			<stop offset="1.000000" stop-color="#C31162"/>
		</linearGradient>
		<linearGradient x1="7.299677" y1="0.180534" x2="17.459686" y2="10.340534" id="paint_linear_4_7340_0" gradientUnits="userSpaceOnUse">
			<stop stop-color="#32A071"/>
			<stop offset="0.070000" stop-color="#2DA771"/>
			<stop offset="0.480000" stop-color="#15CF74"/>
			<stop offset="0.800000" stop-color="#06E775"/>
			<stop offset="1.000000" stop-color="#00F076"/>
		</linearGradient>
	</defs>
	<g clip-path="url(#clip4_7332)">
		<path id="Vector" d="M130 0L5 0C2.23 0 0 2.23 0 5L0 35C0 37.76 2.23 40 5 40L130 40C132.76 40 135 37.76 135 35L135 5C135 2.23 132.76 0 130 0Z" fill="#000000" fill-opacity="1.000000" fill-rule="nonzero"/>
		<path id="Vector" d="M130 0.79C131.11 0.79 132.18 1.24 132.97 2.03C133.75 2.81 134.2 3.88 134.2 5L134.2 35C134.2 36.11 133.75 37.18 132.97 37.96C132.18 38.75 131.11 39.2 130 39.2L5 39.2C3.88 39.2 2.81 38.75 2.03 37.96C1.24 37.18 0.79 36.11 0.79 35L0.79 5C0.79 3.88 1.24 2.81 2.03 2.03C2.81 1.24 3.88 0.79 5 0.79L130 0.79ZM130 0L5 0C3.67 0 2.4 0.52 1.46 1.46C0.52 2.4 0 3.67 0 5L0 35C0 36.32 0.52 37.59 1.46 38.53C2.4 39.47 3.67 40 5 40L130 40C131.32 40 132.59 39.47 133.53 38.53C134.47 37.59 135 36.32 135 35L135 5C135 3.67 134.47 2.4 133.53 1.46C132.59 0.52 131.32 0 130 0Z" fill="#A6A6A6" fill-opacity="1.000000" fill-rule="nonzero"/>
		<path id="Vector" d="M47.41 10.23C47.43 10.6 47.37 10.97 47.25 11.31C47.12 11.66 46.92 11.97 46.66 12.23C46.38 12.53 46.04 12.76 45.66 12.91C45.28 13.07 44.87 13.14 44.46 13.12C43.84 13.12 43.24 12.93 42.73 12.58C42.21 12.24 41.81 11.75 41.58 11.17C41.34 10.6 41.28 9.97 41.4 9.36C41.52 8.75 41.82 8.19 42.25 7.75C42.54 7.46 42.89 7.23 43.27 7.08C43.65 6.92 44.05 6.85 44.46 6.85C44.89 6.85 45.31 6.94 45.7 7.1C46.06 7.25 46.38 7.48 46.63 7.77L46.11 8.3C45.91 8.07 45.65 7.88 45.37 7.76C45.08 7.63 44.77 7.58 44.46 7.59C44.15 7.59 43.84 7.65 43.56 7.78C43.27 7.9 43.01 8.07 42.79 8.3C42.57 8.52 42.4 8.79 42.29 9.08C42.18 9.37 42.12 9.68 42.13 9.99C42.13 10.46 42.26 10.92 42.51 11.31C42.77 11.7 43.13 12.01 43.56 12.19C43.99 12.38 44.46 12.43 44.92 12.35C45.38 12.27 45.8 12.05 46.13 11.72C46.44 11.39 46.62 10.96 46.63 10.5L44.46 10.5L44.46 9.78L47.37 9.78C47.4 9.93 47.41 10.08 47.41 10.23ZM52 7.73L49.29 7.73L49.29 9.63L51.75 9.63L51.75 10.35L49.29 10.35L49.29 12.25L52 12.25L52 12.99L48.5 12.99L48.5 6.99L52 6.99L52 7.73ZM55.28 12.99L54.5 12.99L54.5 7.73L52.83 7.73L52.83 6.99L57 6.99L57 7.73L55.28 7.73L55.28 12.99ZM59.94 12.99L59.94 6.99L60.71 6.99L60.71 12.99L59.94 12.99ZM64.12 12.99L63.36 12.99L63.36 7.73L61.67 7.73L61.67 6.99L65.79 6.99L65.79 7.73L64.12 7.73L64.12 12.99ZM73.61 12.21C73.02 12.8 72.23 13.12 71.41 13.12C70.58 13.12 69.79 12.8 69.21 12.21C68.64 11.61 68.32 10.82 68.32 9.99C68.32 9.16 68.64 8.37 69.21 7.76C69.49 7.47 69.84 7.24 70.21 7.09C70.59 6.93 71 6.85 71.41 6.85C71.81 6.85 72.22 6.93 72.6 7.09C72.97 7.24 73.32 7.47 73.61 7.76C74.18 8.37 74.49 9.16 74.49 9.99C74.49 10.82 74.18 11.61 73.61 12.21ZM69.78 11.71C70.21 12.15 70.79 12.39 71.41 12.39C72.02 12.39 72.6 12.15 73.04 11.71C73.46 11.24 73.7 10.63 73.7 9.99C73.7 9.36 73.46 8.75 73.04 8.27C72.6 7.84 72.02 7.6 71.41 7.6C70.79 7.6 70.21 7.84 69.78 8.27C69.35 8.75 69.11 9.36 69.11 9.99C69.11 10.63 69.35 11.24 69.78 11.71ZM75.58 12.99L75.58 6.99L76.52 6.99L79.44 11.66L79.44 6.99L80.21 6.99L80.21 12.99L79.41 12.99L76.36 8.1L76.36 12.99L75.58 12.99Z" fill="#FFFFFF" fill-opacity="1.000000" fill-rule="nonzero"/>
		<path id="Vector" d="M47.25 11.31C47.12 11.66 46.92 11.97 46.66 12.23C46.38 12.53 46.04 12.76 45.66 12.91C45.28 13.07 44.87 13.14 44.46 13.12C43.84 13.12 43.24 12.93 42.73 12.58C42.21 12.24 41.81 11.75 41.58 11.17C41.34 10.6 41.28 9.97 41.4 9.36C41.52 8.75 41.82 8.19 42.25 7.75C42.54 7.46 42.89 7.23 43.27 7.08C43.65 6.92 44.05 6.85 44.46 6.85C44.89 6.85 45.31 6.94 45.7 7.1C46.06 7.25 46.38 7.48 46.63 7.77L46.11 8.3C45.91 8.07 45.65 7.88 45.37 7.76C45.08 7.63 44.77 7.58 44.46 7.59C44.15 7.59 43.84 7.65 43.56 7.78C43.27 7.9 43.01 8.07 42.79 8.3C42.57 8.52 42.4 8.79 42.29 9.08C42.18 9.37 42.12 9.68 42.13 9.99C42.13 10.46 42.26 10.92 42.51 11.31C42.77 11.7 43.13 12.01 43.56 12.19C43.99 12.38 44.46 12.43 44.92 12.35C45.38 12.27 45.8 12.05 46.13 11.72C46.44 11.39 46.62 10.96 46.63 10.5L44.46 10.5L44.46 9.78L47.37 9.78C47.4 9.93 47.41 10.08 47.41 10.23C47.43 10.6 47.37 10.97 47.25 11.31ZM49.29 7.73L49.29 9.63L51.75 9.63L51.75 10.35L49.29 10.35L49.29 12.25L52 12.25L52 12.99L48.5 12.99L48.5 6.99L52 6.99L52 7.73L49.29 7.73ZM54.5 12.99L54.5 7.73L52.83 7.73L52.83 6.99L57 6.99L57 7.73L55.28 7.73L55.28 12.99L54.5 12.99ZM59.94 6.99L60.71 6.99L60.71 12.99L59.94 12.99L59.94 6.99ZM63.36 12.99L63.36 7.73L61.67 7.73L61.67 6.99L65.79 6.99L65.79 7.73L64.12 7.73L64.12 12.99L63.36 12.99ZM71.41 13.12C70.58 13.12 69.79 12.8 69.21 12.21C68.64 11.61 68.32 10.82 68.32 9.99C68.32 9.16 68.64 8.37 69.21 7.76C69.49 7.47 69.84 7.24 70.21 7.09C70.59 6.93 71 6.85 71.41 6.85C71.81 6.85 72.22 6.93 72.6 7.09C72.97 7.24 73.32 7.47 73.61 7.76C74.18 8.37 74.49 9.16 74.49 9.99C74.49 10.82 74.18 11.61 73.61 12.21C73.02 12.8 72.23 13.12 71.41 13.12ZM71.41 12.39C72.02 12.39 72.6 12.15 73.04 11.71C73.46 11.24 73.7 10.63 73.7 9.99C73.7 9.36 73.46 8.75 73.04 8.27C72.6 7.84 72.02 7.6 71.41 7.6C70.79 7.6 70.21 7.84 69.78 8.27C69.35 8.75 69.11 9.36 69.11 9.99C69.11 10.63 69.35 11.24 69.78 11.71C70.21 12.15 70.79 12.39 71.41 12.39ZM75.58 6.99L76.52 6.99L79.44 11.66L79.44 6.99L80.21 6.99L80.21 12.99L79.41 12.99L76.36 8.1L76.36 12.99L75.58 12.99L75.58 6.99Z" stroke="#FFFFFF" stroke-opacity="1.000000" stroke-width="0.200000"/>
		<path id="Vector" d="M68.13 21.75C67.3 21.75 66.48 22 65.78 22.47C65.08 22.94 64.54 23.61 64.22 24.38C63.9 25.16 63.82 26.01 63.99 26.84C64.16 27.66 64.56 28.41 65.16 29.01C65.75 29.6 66.51 30 67.33 30.16C68.16 30.33 69.01 30.24 69.79 29.92C70.56 29.6 71.22 29.05 71.69 28.35C72.16 27.66 72.41 26.83 72.41 26C72.41 25.43 72.31 24.87 72.1 24.35C71.88 23.83 71.57 23.36 71.17 22.96C70.77 22.57 70.3 22.26 69.78 22.05C69.26 21.84 68.7 21.73 68.13 21.75ZM68.13 28.58C67.62 28.61 67.1 28.49 66.66 28.23C66.21 27.97 65.85 27.58 65.63 27.11C65.4 26.65 65.33 26.12 65.41 25.61C65.48 25.1 65.71 24.62 66.07 24.24C66.42 23.87 66.88 23.6 67.38 23.49C67.89 23.37 68.41 23.41 68.9 23.6C69.38 23.79 69.79 24.12 70.08 24.54C70.38 24.97 70.53 25.48 70.54 26C70.55 26.32 70.5 26.65 70.39 26.96C70.28 27.27 70.1 27.55 69.88 27.79C69.66 28.03 69.39 28.23 69.09 28.36C68.79 28.49 68.46 28.57 68.13 28.58ZM58.83 21.75C57.99 21.75 57.16 22 56.47 22.47C55.77 22.93 55.23 23.6 54.91 24.38C54.59 25.15 54.5 26.01 54.67 26.83C54.83 27.65 55.24 28.41 55.83 29C56.43 29.6 57.19 30 58.01 30.16C58.83 30.33 59.69 30.24 60.46 29.92C61.24 29.6 61.9 29.05 62.37 28.36C62.84 27.66 63.08 26.83 63.08 26C63.09 25.43 62.99 24.87 62.78 24.35C62.56 23.83 62.25 23.36 61.85 22.96C61.45 22.57 60.98 22.26 60.46 22.05C59.94 21.84 59.38 21.73 58.82 21.75L58.83 21.75ZM58.83 28.58C58.31 28.61 57.79 28.5 57.34 28.24C56.9 27.98 56.54 27.59 56.31 27.12C56.09 26.65 56.01 26.13 56.08 25.62C56.16 25.11 56.39 24.63 56.74 24.25C57.09 23.87 57.55 23.6 58.06 23.49C58.56 23.37 59.09 23.41 59.57 23.6C60.06 23.79 60.47 24.12 60.76 24.54C61.06 24.97 61.21 25.48 61.21 26C61.23 26.32 61.18 26.65 61.07 26.96C60.96 27.27 60.78 27.55 60.56 27.79C60.34 28.03 60.07 28.23 59.77 28.36C59.47 28.49 59.14 28.57 58.82 28.58L58.83 28.58ZM47.74 23.06L47.74 24.86L52.05 24.86C51.99 25.7 51.63 26.5 51.05 27.12C50.62 27.57 50.1 27.91 49.53 28.14C48.96 28.37 48.34 28.47 47.73 28.45C46.45 28.45 45.23 27.94 44.33 27.04C43.43 26.14 42.92 24.92 42.92 23.65C42.92 22.37 43.43 21.15 44.33 20.25C45.23 19.35 46.45 18.85 47.73 18.85C48.94 18.83 50.12 19.29 51 20.13L52.27 18.87C51.67 18.27 50.97 17.79 50.19 17.47C49.41 17.15 48.58 16.99 47.74 17C46.85 16.96 45.96 17.11 45.13 17.42C44.3 17.74 43.54 18.22 42.9 18.84C42.25 19.45 41.74 20.19 41.4 21.01C41.05 21.83 40.87 22.71 40.87 23.6C40.87 24.49 41.05 25.37 41.4 26.19C41.74 27.01 42.25 27.75 42.9 28.36C43.54 28.98 44.3 29.46 45.13 29.78C45.96 30.09 46.85 30.24 47.74 30.21C48.59 30.24 49.45 30.1 50.24 29.78C51.04 29.46 51.75 28.97 52.34 28.36C53.39 27.2 53.95 25.69 53.91 24.13C53.91 23.76 53.87 23.38 53.8 23L47.74 23.06ZM93.04 24.46C92.78 23.69 92.3 23.02 91.65 22.53C91 22.05 90.21 21.78 89.41 21.75C88.86 21.74 88.32 21.86 87.81 22.07C87.31 22.29 86.86 22.61 86.48 23C86.11 23.4 85.82 23.87 85.63 24.39C85.45 24.9 85.37 25.45 85.41 26C85.39 26.55 85.49 27.11 85.7 27.63C85.91 28.15 86.22 28.62 86.61 29.02C87.01 29.41 87.48 29.73 87.99 29.94C88.51 30.15 89.07 30.25 89.62 30.25C90.32 30.25 91.01 30.08 91.63 29.75C92.25 29.42 92.78 28.95 93.16 28.37L91.71 27.37C91.5 27.73 91.19 28.02 90.83 28.23C90.46 28.44 90.05 28.55 89.62 28.54C89.19 28.56 88.76 28.45 88.4 28.22C88.03 27.99 87.74 27.65 87.57 27.25L93.25 24.91L93.04 24.46ZM87.25 25.87C87.22 25.57 87.27 25.26 87.37 24.96C87.47 24.67 87.63 24.4 87.83 24.17C88.04 23.94 88.29 23.75 88.57 23.62C88.85 23.48 89.16 23.41 89.46 23.4C89.79 23.37 90.11 23.45 90.39 23.61C90.67 23.77 90.9 24.01 91.04 24.29L87.25 25.87ZM82.62 30L84.5 30L84.5 17.5L82.62 17.5L82.62 30ZM79.57 22.7L79.5 22.7C79.21 22.38 78.87 22.13 78.48 21.96C78.1 21.78 77.68 21.69 77.25 21.7C76.16 21.75 75.13 22.22 74.38 23.01C73.62 23.8 73.2 24.86 73.2 25.95C73.2 27.04 73.62 28.1 74.38 28.89C75.13 29.68 76.16 30.15 77.25 30.21C77.68 30.21 78.1 30.13 78.49 29.95C78.87 29.78 79.22 29.53 79.5 29.21L79.55 29.21L79.55 29.82C79.55 31.45 78.69 32.32 77.29 32.32C76.82 32.3 76.37 32.16 75.99 31.89C75.6 31.62 75.31 31.24 75.15 30.81L73.52 31.49C73.82 32.23 74.34 32.87 75.02 33.32C75.69 33.76 76.48 34 77.29 34C79.48 34 81.29 32.71 81.29 29.57L81.29 22L79.57 22L79.57 22.7ZM77.42 28.58C76.78 28.52 76.18 28.22 75.74 27.74C75.3 27.27 75.06 26.64 75.06 26C75.06 25.35 75.3 24.72 75.74 24.25C76.18 23.77 76.78 23.47 77.42 23.41C77.75 23.43 78.06 23.51 78.35 23.65C78.63 23.79 78.89 23.99 79.1 24.23C79.32 24.47 79.48 24.75 79.58 25.05C79.68 25.35 79.72 25.68 79.7 26C79.72 26.32 79.68 26.64 79.58 26.94C79.48 27.25 79.32 27.53 79.11 27.77C78.89 28.01 78.63 28.21 78.34 28.35C78.05 28.49 77.74 28.56 77.41 28.58L77.42 28.58ZM101.81 17.5L97.33 17.5L97.33 30L99.21 30L99.21 25.25L101.82 25.25C102.35 25.29 102.88 25.22 103.39 25.04C103.89 24.87 104.35 24.59 104.74 24.22C105.14 23.86 105.45 23.42 105.66 22.93C105.87 22.44 105.98 21.91 105.98 21.37C105.98 20.84 105.87 20.31 105.66 19.82C105.45 19.33 105.14 18.89 104.74 18.53C104.35 18.16 103.89 17.88 103.39 17.71C102.88 17.53 102.35 17.46 101.82 17.5L101.81 17.5ZM101.81 23.5L99.2 23.5L99.2 19.24L101.85 19.24C102.41 19.24 102.96 19.46 103.36 19.86C103.77 20.27 103.99 20.81 103.99 21.38C103.99 21.95 103.77 22.5 103.36 22.9C102.96 23.3 102.41 23.53 101.85 23.53L101.81 23.5ZM113.34 21.7C112.65 21.65 111.98 21.81 111.39 22.15C110.79 22.49 110.31 23 110.01 23.61L111.67 24.29C111.83 23.99 112.08 23.75 112.38 23.58C112.68 23.42 113.02 23.35 113.37 23.37C113.6 23.35 113.84 23.37 114.07 23.43C114.3 23.5 114.52 23.61 114.7 23.76C114.89 23.91 115.04 24.1 115.16 24.31C115.27 24.52 115.34 24.75 115.37 24.99L115.37 25.12C114.77 24.8 114.1 24.63 113.42 24.63C111.63 24.63 109.82 25.63 109.82 27.45C109.83 27.83 109.93 28.21 110.09 28.56C110.26 28.91 110.5 29.22 110.78 29.47C111.07 29.73 111.41 29.93 111.78 30.05C112.14 30.17 112.53 30.22 112.92 30.2C113.39 30.23 113.86 30.14 114.28 29.92C114.7 29.71 115.06 29.39 115.32 29L115.38 29L115.38 30L117.18 30L117.18 25.19C117.18 23 115.52 21.73 113.39 21.73L113.34 21.7ZM113.11 28.54C112.5 28.54 111.65 28.24 111.65 27.49C111.65 26.49 112.71 26.16 113.65 26.16C114.24 26.14 114.83 26.29 115.35 26.58C115.28 27.12 115.03 27.62 114.62 27.98C114.22 28.35 113.7 28.56 113.16 28.58L113.11 28.54ZM123.74 22L121.6 27.41L121.54 27.41L119.32 22L117.32 22L120.65 29.58L118.75 33.79L120.7 33.79L125.82 22L123.74 22ZM106.93 30L108.8 30L108.8 17.5L106.93 17.5L106.93 30Z" fill="#FFFFFF" fill-opacity="1.000000" fill-rule="nonzero"/>
		<path id="Vector" d="M10.44 7.54C10.11 7.93 9.94 8.43 9.98 8.94L9.98 31.06C9.94 31.56 10.11 32.06 10.44 32.46L10.5 32.53L22.9 20.15L22.9 19.86L10.5 7.47L10.44 7.54Z" fill="url(#paint_linear_4_7337_0)" fill-opacity="1.000000" fill-rule="nonzero"/>
		<path id="Vector" d="M27 24.28L22.9 20.15L22.9 19.86L27 15.72L27.09 15.77L32 18.56C33.4 19.35 33.4 20.65 32 21.45L27.11 24.23L27 24.28Z" fill="url(#paint_linear_4_7338_0)" fill-opacity="1.000000" fill-rule="nonzero"/>
		<path id="Vector" d="M27.11 24.21L22.89 20L10.43 32.46C10.72 32.71 11.08 32.85 11.46 32.86C11.84 32.87 12.21 32.75 12.51 32.51L27.12 24.21L27.11 24.21Z" fill="url(#paint_linear_4_7339_0)" fill-opacity="1.000000" fill-rule="nonzero"/>
		<path id="Vector" d="M27.12 15.78L12.5 7.48C12.21 7.24 11.83 7.12 11.45 7.13C11.07 7.14 10.71 7.29 10.42 7.54L22.89 20L27.12 15.78Z" fill="url(#paint_linear_4_7340_0)" fill-opacity="1.000000" fill-rule="nonzero"/>
		<g opacity="0.200000">
			<path id="Vector" d="M26.99 24.12L12.5 32.37C12.22 32.59 11.87 32.71 11.5 32.71C11.14 32.71 10.79 32.59 10.5 32.37L10.43 32.45L10.5 32.51C10.79 32.73 11.14 32.85 11.5 32.85C11.87 32.85 12.22 32.73 12.5 32.51L27.11 24.21L26.99 24.12Z" fill="#000000" fill-opacity="1.000000" fill-rule="nonzero"/>
		</g>
		<g opacity="0.120000">
			<path id="Vector" d="M10.44 32.32C10.11 31.92 9.94 31.42 9.98 30.91L9.98 31.07C9.94 31.57 10.11 32.07 10.44 32.46L10.5 32.4L10.44 32.32ZM32 21.29L27 24.12L27.08 24.21L32 21.44C32.27 21.3 32.51 21.1 32.69 20.85C32.86 20.6 32.97 20.3 33 20C32.94 20.27 32.82 20.54 32.65 20.76C32.47 20.99 32.25 21.17 32 21.29Z" fill="#000000" fill-opacity="1.000000" fill-rule="nonzero"/>
		</g>
		<g opacity="0.250000">
			<path id="Vector" d="M12.5 7.62L32 18.7C32.25 18.82 32.47 19 32.65 19.23C32.82 19.45 32.94 19.72 33 20C32.97 19.69 32.86 19.39 32.69 19.14C32.51 18.89 32.27 18.69 32 18.56L12.5 7.48C11.1 6.69 9.96 7.35 9.96 8.95L9.96 9.1C10 7.49 11.12 6.83 12.5 7.62Z" fill="#FFFFFF" fill-opacity="1.000000" fill-rule="nonzero"/>
		</g>
	</g>
</svg>
