<svg width="1120.000000" height="69.000000" viewBox="0 0 1120 69" fill="none" xmlns="http://www.w3.org/2000/svg" xmlns:xlink="http://www.w3.org/1999/xlink">
	<desc>
			Created with Pixso.
	</desc>
	<defs/>
	<path id="Create your own Meetup group." d="M9.89 23.72L7.74 23.72C7.69 24.2 7.58 24.6 7.4 24.92C7.23 25.25 6.98 25.49 6.64 25.66C6.32 25.83 5.89 25.91 5.36 25.91Q4.71 25.91 4.25 25.66Q4.11 25.59 3.98 25.49Q3.69 25.27 3.48 24.93C3.28 24.61 3.14 24.23 3.04 23.77C2.95 23.31 2.9 22.79 2.9 22.21L2.9 21.33Q2.9 20.42 3.06 19.74C3.16 19.27 3.32 18.89 3.53 18.58Q3.77 18.22 4.1 18Q4.2 17.93 4.31 17.88Q4.78 17.64 5.41 17.64Q6.21 17.64 6.7 17.91C7.03 18.08 7.27 18.33 7.43 18.67C7.6 19 7.7 19.41 7.75 19.89L9.89 19.89C9.82 19.11 9.61 18.43 9.25 17.84Q9.07 17.54 8.84 17.28Q8.39 16.78 7.76 16.44Q6.8 15.92 5.41 15.92Q4.34 15.92 3.47 16.31C2.9 16.56 2.41 16.93 2 17.4Q1.39 18.1 1.06 19.1C0.84 19.77 0.73 20.52 0.73 21.35L0.73 22.21Q0.73 23.46 1.05 24.46Q1.37 25.45 1.97 26.16C2.38 26.63 2.86 26.99 3.43 27.25Q4.29 27.62 5.36 27.62Q6.75 27.62 7.73 27.12C8.38 26.79 8.89 26.33 9.25 25.75C9.62 25.16 9.83 24.48 9.89 23.72ZM122.64 16.09L121.71 16.09L121.71 27.46L123.85 27.46L123.85 23.96L123.64 18.77L126.86 27.46L128.35 27.46L131.58 18.78L131.37 23.96L131.37 27.46L133.52 27.46L133.52 16.09L130.71 16.09L127.61 24.65L124.5 16.09L122.64 16.09ZM36.73 16.93L34.66 16.93L34.66 19.01L33.36 19.01L33.36 20.5L34.66 20.5L34.66 25.19C34.66 25.78 34.76 26.25 34.95 26.61C35.14 26.97 35.41 27.22 35.76 27.39Q36.28 27.62 36.98 27.62Q37.39 27.62 37.71 27.57Q38.03 27.51 38.29 27.42L38.28 25.88C38.21 25.89 38.11 25.91 38 25.92Q37.82 25.95 37.62 25.95C37.43 25.95 37.27 25.92 37.14 25.88C37 25.83 36.9 25.74 36.83 25.6C36.76 25.47 36.73 25.28 36.73 25.03L36.73 20.5L38.21 20.5L38.21 19.01L36.73 19.01L36.73 16.93ZM155.29 16.93L153.22 16.93L153.22 19.01L151.92 19.01L151.92 20.5L153.22 20.5L153.22 25.19C153.22 25.78 153.32 26.25 153.51 26.61C153.7 26.97 153.97 27.22 154.32 27.39Q154.85 27.62 155.54 27.62Q155.95 27.62 156.27 27.57Q156.6 27.51 156.85 27.42L156.85 25.88C156.77 25.89 156.67 25.91 156.56 25.92Q156.39 25.95 156.18 25.95C156 25.95 155.83 25.92 155.7 25.88C155.56 25.83 155.46 25.74 155.39 25.6C155.33 25.47 155.29 25.28 155.29 25.03L155.29 20.5L156.77 20.5L156.77 19.01L155.29 19.01L155.29 16.93ZM16 20.88L16.03 18.96C15.95 18.92 15.84 18.9 15.71 18.89C15.58 18.86 15.45 18.85 15.34 18.85C14.93 18.85 14.56 18.95 14.25 19.14C13.93 19.33 13.67 19.6 13.46 19.94C13.45 19.97 13.43 20 13.41 20.03L13.35 19.01L11.39 19.01L11.39 27.46L13.46 27.46L13.46 21.79C13.54 21.61 13.64 21.45 13.77 21.32C13.93 21.15 14.13 21.03 14.37 20.95C14.61 20.86 14.89 20.82 15.21 20.82Q15.39 20.82 15.6 20.83C15.75 20.84 15.88 20.86 16 20.88ZM19.07 27.31C19.58 27.52 20.16 27.62 20.8 27.62C21.35 27.62 21.84 27.55 22.26 27.4Q22.89 27.17 23.34 26.82C23.64 26.58 23.88 26.33 24.06 26.07L23.02 24.99C22.76 25.32 22.45 25.57 22.1 25.75C21.75 25.91 21.36 26 20.92 26C20.58 26 20.27 25.94 20 25.82C19.74 25.69 19.51 25.52 19.32 25.3C19.13 25.08 18.98 24.81 18.89 24.51Q18.79 24.2 18.76 23.86L24.23 23.86L24.23 23C24.23 22.38 24.15 21.82 24 21.32C23.84 20.8 23.61 20.37 23.3 20C22.99 19.64 22.61 19.36 22.15 19.16C21.69 18.96 21.16 18.85 20.57 18.85C19.99 18.85 19.46 18.96 18.98 19.17C18.5 19.38 18.09 19.67 17.75 20.06Q17.23 20.64 16.95 21.44C16.76 21.97 16.67 22.56 16.67 23.21L16.67 23.53Q16.67 24.39 16.95 25.14Q17.15 25.65 17.47 26.08Q17.61 26.27 17.77 26.44C18.13 26.81 18.56 27.1 19.07 27.31ZM18.79 22.44C18.81 22.32 18.83 22.21 18.85 22.1C18.93 21.77 19.04 21.48 19.18 21.25Q19.39 20.91 19.69 20.71Q19.72 20.7 19.75 20.68C19.97 20.55 20.24 20.48 20.55 20.48C20.93 20.48 21.24 20.56 21.48 20.73C21.72 20.89 21.9 21.11 22.01 21.39C22.13 21.66 22.19 21.96 22.2 22.28L22.2 22.44L18.79 22.44ZM30.35 26.65C30.27 26.74 30.19 26.82 30.1 26.9C29.87 27.11 29.59 27.28 29.27 27.42Q28.78 27.62 28.14 27.62C27.6 27.62 27.11 27.51 26.67 27.29C26.24 27.07 25.9 26.77 25.65 26.39C25.4 26.01 25.28 25.58 25.28 25.1C25.28 24.65 25.36 24.25 25.53 23.91C25.69 23.57 25.94 23.28 26.27 23.04Q26.76 22.68 27.49 22.5C27.98 22.38 28.54 22.32 29.17 22.32L30.27 22.32L30.27 21.77C30.27 21.48 30.22 21.23 30.12 21.03C30.02 20.82 29.87 20.66 29.67 20.54Q29.36 20.37 28.89 20.37Q28.48 20.37 28.17 20.51Q27.93 20.62 27.77 20.8Q27.73 20.85 27.7 20.91C27.59 21.08 27.53 21.27 27.53 21.49L25.46 21.49C25.46 21.14 25.55 20.81 25.71 20.5C25.88 20.18 26.12 19.9 26.42 19.65C26.74 19.4 27.11 19.21 27.54 19.07C27.98 18.92 28.47 18.85 29.01 18.85Q29.97 18.85 30.72 19.18C31.23 19.4 31.62 19.72 31.91 20.15C32.2 20.58 32.35 21.13 32.35 21.78L32.35 25.47C32.35 25.89 32.37 26.26 32.42 26.56C32.48 26.85 32.57 27.11 32.67 27.33L32.67 27.46L30.57 27.46C30.47 27.25 30.4 26.98 30.35 26.65L30.35 26.65L30.35 26.65ZM30.27 25.08C30.24 25.14 30.2 25.2 30.15 25.27C30 25.48 29.79 25.66 29.52 25.82C29.25 25.96 28.93 26.03 28.57 26.03Q28.19 26.03 27.91 25.89Q27.71 25.78 27.57 25.62Q27.53 25.56 27.49 25.5Q27.46 25.45 27.44 25.41Q27.35 25.19 27.35 24.93C27.35 24.72 27.39 24.53 27.46 24.36C27.54 24.19 27.66 24.04 27.82 23.92C27.97 23.8 28.17 23.71 28.42 23.64C28.66 23.58 28.95 23.54 29.27 23.54L30.27 23.54L30.27 25.08ZM41.65 27.31C42.16 27.52 42.74 27.62 43.38 27.62C43.93 27.62 44.42 27.55 44.84 27.4Q45.47 27.17 45.92 26.82C46.22 26.58 46.46 26.33 46.64 26.07L45.6 24.99C45.34 25.32 45.03 25.57 44.67 25.75C44.33 25.91 43.94 26 43.5 26C43.16 26 42.85 25.94 42.58 25.82C42.32 25.69 42.09 25.52 41.89 25.3C41.71 25.08 41.56 24.81 41.46 24.51Q41.37 24.2 41.34 23.86L46.81 23.86L46.81 23C46.81 22.38 46.73 21.82 46.57 21.32C46.42 20.8 46.19 20.37 45.88 20C45.57 19.64 45.19 19.36 44.73 19.16C44.27 18.96 43.74 18.85 43.14 18.85C42.57 18.85 42.04 18.96 41.56 19.17C41.08 19.38 40.67 19.67 40.32 20.06Q39.81 20.64 39.53 21.44C39.34 21.97 39.25 22.56 39.25 23.21L39.25 23.53Q39.25 24.39 39.53 25.14Q39.73 25.65 40.05 26.08Q40.19 26.27 40.35 26.44C40.71 26.81 41.14 27.1 41.65 27.31ZM41.37 22.44C41.39 22.32 41.41 22.21 41.43 22.1C41.51 21.77 41.61 21.48 41.76 21.25Q41.97 20.91 42.27 20.71Q42.3 20.7 42.32 20.68C42.55 20.55 42.82 20.48 43.13 20.48C43.51 20.48 43.82 20.56 44.06 20.73C44.3 20.89 44.47 21.11 44.59 21.39C44.7 21.66 44.77 21.96 44.78 22.28L44.78 22.44L41.37 22.44ZM59.64 23.16L59.64 23.32C59.64 23.94 59.72 24.51 59.9 25.03Q60.14 25.75 60.59 26.3Q60.63 26.35 60.67 26.4C61.01 26.79 61.43 27.09 61.92 27.3C62.42 27.51 62.98 27.62 63.6 27.62C64.23 27.62 64.79 27.51 65.28 27.3C65.77 27.09 66.19 26.79 66.53 26.4Q66.57 26.35 66.61 26.3Q67.06 25.75 67.3 25.03C67.48 24.51 67.57 23.94 67.57 23.32L67.57 23.16C67.57 22.54 67.48 21.97 67.3 21.45C67.12 20.92 66.86 20.47 66.53 20.08C66.19 19.7 65.77 19.4 65.28 19.18Q64.54 18.85 63.59 18.85C62.96 18.85 62.41 18.96 61.92 19.18C61.43 19.4 61.01 19.7 60.67 20.08C60.34 20.47 60.08 20.92 59.9 21.45C59.72 21.97 59.64 22.54 59.64 23.16ZM82.6 20.88L82.64 18.96C82.56 18.92 82.45 18.9 82.32 18.89C82.19 18.86 82.06 18.85 81.95 18.85C81.54 18.85 81.17 18.95 80.85 19.14C80.54 19.33 80.28 19.6 80.07 19.94C80.06 19.97 80.04 20 80.02 20.03L79.96 19.01L78 19.01L78 27.46L80.07 27.46L80.07 21.79C80.14 21.61 80.25 21.45 80.38 21.32C80.54 21.15 80.74 21.03 80.98 20.95C81.22 20.86 81.5 20.82 81.82 20.82Q82 20.82 82.21 20.83C82.36 20.84 82.49 20.86 82.6 20.88ZM87.39 23.16L87.39 23.32C87.39 23.94 87.47 24.51 87.65 25.03Q87.89 25.75 88.34 26.3Q88.38 26.35 88.42 26.4C88.76 26.79 89.18 27.09 89.67 27.3C90.17 27.51 90.73 27.62 91.35 27.62C91.98 27.62 92.54 27.51 93.03 27.3C93.52 27.09 93.94 26.79 94.28 26.4Q94.32 26.35 94.36 26.3Q94.81 25.75 95.05 25.03C95.23 24.51 95.32 23.94 95.32 23.32L95.32 23.16C95.32 22.54 95.23 21.97 95.05 21.45C94.87 20.92 94.61 20.47 94.28 20.08C93.94 19.7 93.52 19.4 93.03 19.18Q92.29 18.85 91.34 18.85C90.71 18.85 90.16 18.96 89.67 19.18C89.18 19.4 88.76 19.7 88.42 20.08C88.09 20.47 87.83 20.92 87.65 21.45C87.47 21.97 87.39 22.54 87.39 23.16ZM110.65 21.47L110.65 27.46L108.59 27.46L108.59 19.01L110.53 19.01L110.6 20.03Q110.62 20 110.64 19.97C110.94 19.61 111.29 19.34 111.7 19.14Q112.31 18.85 113.06 18.85C113.46 18.85 113.83 18.91 114.16 19.03C114.49 19.14 114.77 19.32 115 19.57C115.24 19.82 115.43 20.15 115.55 20.56C115.68 20.96 115.75 21.45 115.75 22.04L115.75 27.46L113.67 27.46L113.67 22.03C113.67 21.64 113.61 21.34 113.5 21.11C113.39 20.89 113.22 20.73 113.01 20.64Q112.7 20.5 112.24 20.5C111.92 20.5 111.64 20.56 111.4 20.69C111.17 20.82 110.97 20.99 110.81 21.21C110.75 21.3 110.7 21.38 110.65 21.47ZM137.62 27.31C138.13 27.52 138.71 27.62 139.35 27.62C139.9 27.62 140.39 27.55 140.81 27.4Q141.44 27.17 141.89 26.82C142.19 26.58 142.43 26.33 142.6 26.07L141.57 24.99C141.31 25.32 141 25.57 140.64 25.75C140.29 25.91 139.9 26 139.47 26C139.13 26 138.82 25.94 138.55 25.82C138.28 25.69 138.06 25.52 137.86 25.3C137.67 25.08 137.53 24.81 137.43 24.51Q137.34 24.2 137.31 23.86L142.78 23.86L142.78 23C142.78 22.38 142.7 21.82 142.54 21.32C142.39 20.8 142.15 20.37 141.85 20C141.54 19.64 141.16 19.36 140.7 19.16C140.24 18.96 139.71 18.85 139.11 18.85C138.53 18.85 138 18.96 137.53 19.17C137.05 19.38 136.64 19.67 136.29 20.06Q135.78 20.64 135.5 21.44C135.31 21.97 135.21 22.56 135.21 23.21L135.21 23.53Q135.21 24.39 135.5 25.14Q135.7 25.65 136.02 26.08Q136.15 26.27 136.32 26.44C136.67 26.81 137.11 27.1 137.62 27.31ZM137.34 22.44C137.36 22.32 137.38 22.21 137.4 22.1C137.47 21.77 137.58 21.48 137.73 21.25Q137.94 20.91 138.24 20.71Q138.27 20.7 138.29 20.68C138.52 20.55 138.79 20.48 139.1 20.48C139.48 20.48 139.79 20.56 140.03 20.73C140.27 20.89 140.44 21.11 140.56 21.39C140.67 21.66 140.74 21.96 140.75 22.28L140.75 22.44L137.34 22.44ZM146.23 27.31C146.74 27.52 147.32 27.62 147.96 27.62C148.51 27.62 149 27.55 149.42 27.4Q150.05 27.17 150.5 26.82C150.8 26.58 151.04 26.33 151.21 26.07L150.17 24.99C149.91 25.32 149.61 25.57 149.25 25.75C148.9 25.91 148.51 26 148.08 26C147.74 26 147.43 25.94 147.16 25.82C146.89 25.69 146.66 25.52 146.47 25.3C146.28 25.08 146.14 24.81 146.04 24.51Q145.95 24.2 145.92 23.86L151.39 23.86L151.39 23C151.39 22.38 151.31 21.82 151.15 21.32C151 20.8 150.76 20.37 150.46 20C150.15 19.64 149.77 19.36 149.31 19.16C148.85 18.96 148.32 18.85 147.72 18.85C147.14 18.85 146.62 18.96 146.14 19.17C145.66 19.38 145.25 19.67 144.9 20.06Q144.39 20.64 144.1 21.44C143.92 21.97 143.82 22.56 143.82 23.21L143.82 23.53Q143.82 24.39 144.1 25.14Q144.31 25.65 144.63 26.08Q144.76 26.27 144.92 26.44C145.28 26.81 145.72 27.1 146.23 27.31ZM145.95 22.44C145.97 22.32 145.99 22.21 146.01 22.1C146.08 21.77 146.19 21.48 146.34 21.25Q146.55 20.91 146.85 20.71Q146.88 20.7 146.9 20.68C147.13 20.55 147.4 20.48 147.71 20.48C148.09 20.48 148.4 20.56 148.64 20.73C148.88 20.89 149.05 21.11 149.17 21.39C149.28 21.66 149.34 21.96 149.35 22.28L149.35 22.44L145.95 22.44ZM174.57 23.32L174.57 23.15Q174.57 22.18 174.36 21.39Q174.15 20.6 173.73 20.03C173.45 19.65 173.1 19.36 172.69 19.16C172.28 18.96 171.81 18.85 171.28 18.85C170.76 18.85 170.31 18.96 169.93 19.16C169.6 19.33 169.31 19.57 169.07 19.87L168.99 19.01L167.07 19.01L167.07 30.71L169.14 30.71L169.14 26.7C169.37 26.96 169.63 27.17 169.93 27.32C170.32 27.52 170.77 27.62 171.29 27.62Q172.09 27.62 172.7 27.3C173.11 27.08 173.45 26.78 173.73 26.39C174.01 26 174.21 25.55 174.35 25.03C174.5 24.5 174.57 23.93 174.57 23.32ZM169.14 25.04C169.28 25.32 169.47 25.55 169.71 25.72Q170.11 26 170.75 26C171.06 26 171.33 25.92 171.56 25.78C171.78 25.64 171.96 25.45 172.1 25.21C172.25 24.96 172.35 24.67 172.41 24.35Q172.5 23.86 172.5 23.32L172.5 23.15C172.5 22.78 172.47 22.43 172.4 22.11C172.33 21.79 172.23 21.51 172.09 21.27C171.95 21.02 171.77 20.83 171.54 20.7C171.32 20.56 171.05 20.5 170.73 20.5C170.41 20.5 170.14 20.55 169.91 20.65Q169.68 20.76 169.51 20.92Q169.42 21 169.35 21.1C169.27 21.2 169.2 21.31 169.14 21.43L169.14 25.04ZM179.73 23.17L179.73 23.34C179.73 23.95 179.81 24.52 179.96 25.04C180.12 25.56 180.34 26.02 180.64 26.4C180.93 26.79 181.29 27.09 181.71 27.3C182.12 27.51 182.59 27.62 183.11 27.62Q183.89 27.62 184.47 27.32C184.77 27.16 185.02 26.96 185.25 26.7L185.25 27.23C185.25 27.66 185.16 28.02 185 28.31C184.85 28.6 184.62 28.83 184.32 28.98C184.03 29.14 183.68 29.21 183.26 29.21Q182.82 29.21 182.42 29.08Q182.26 29.03 182.11 28.96C181.76 28.79 181.44 28.54 181.16 28.21L180.23 29.43C180.47 29.75 180.77 30.01 181.13 30.21C181.49 30.41 181.87 30.56 182.26 30.65Q182.85 30.79 183.36 30.79C184.15 30.79 184.84 30.65 185.43 30.37Q185.99 30.11 186.38 29.71Q186.63 29.46 186.82 29.15C187.15 28.62 187.32 27.97 187.32 27.21L187.32 19.01L185.44 19.01L185.36 19.85C185.13 19.56 184.86 19.33 184.53 19.16Q183.96 18.85 183.13 18.85C182.6 18.85 182.13 18.96 181.71 19.17C181.29 19.38 180.93 19.67 180.64 20.05C180.34 20.43 180.12 20.89 179.96 21.42Q179.73 22.21 179.73 23.17ZM185.25 21.4C185.19 21.3 185.13 21.2 185.06 21.11C184.91 20.92 184.71 20.77 184.48 20.66C184.25 20.55 183.97 20.5 183.64 20.5Q183.2 20.5 182.86 20.68Q182.84 20.69 182.82 20.71C182.59 20.84 182.4 21.03 182.25 21.28C182.09 21.52 181.98 21.8 181.9 22.13C181.83 22.45 181.79 22.8 181.79 23.17L181.79 23.34C181.79 23.7 181.83 24.04 181.9 24.36C181.97 24.68 182.09 24.96 182.24 25.21C182.39 25.45 182.58 25.63 182.81 25.77Q183.15 25.97 183.63 25.97C184.06 25.97 184.4 25.88 184.68 25.71C184.92 25.55 185.11 25.34 185.25 25.08L185.25 21.4ZM193.78 20.88L193.81 18.96C193.73 18.92 193.62 18.9 193.49 18.89C193.36 18.86 193.24 18.85 193.12 18.85C192.71 18.85 192.34 18.95 192.03 19.14C191.71 19.33 191.45 19.6 191.25 19.94C191.23 19.97 191.21 20 191.19 20.03L191.13 19.01L189.18 19.01L189.18 27.46L191.24 27.46L191.24 21.79C191.32 21.61 191.42 21.45 191.55 21.32C191.71 21.15 191.91 21.03 192.15 20.95C192.39 20.86 192.67 20.82 192.99 20.82Q193.18 20.82 193.39 20.83C193.53 20.84 193.66 20.86 193.78 20.88ZM194.35 23.16L194.35 23.32C194.35 23.94 194.44 24.51 194.62 25.03Q194.86 25.75 195.31 26.3Q195.35 26.35 195.39 26.4C195.73 26.79 196.15 27.09 196.64 27.3C197.14 27.51 197.7 27.62 198.32 27.62C198.95 27.62 199.51 27.51 200 27.3C200.49 27.09 200.91 26.79 201.25 26.4Q201.29 26.35 201.33 26.3Q201.78 25.75 202.02 25.03C202.2 24.51 202.28 23.94 202.28 23.32L202.28 23.16C202.28 22.54 202.2 21.97 202.02 21.45C201.84 20.92 201.58 20.47 201.25 20.08C200.91 19.7 200.49 19.4 200 19.18Q199.26 18.85 198.31 18.85C197.68 18.85 197.13 18.96 196.64 19.18C196.15 19.4 195.73 19.7 195.39 20.08C195.06 20.47 194.8 20.92 194.62 21.45C194.44 21.97 194.35 22.54 194.35 23.16ZM220.21 23.32L220.21 23.15Q220.21 22.18 220 21.39Q219.79 20.6 219.37 20.03C219.09 19.65 218.74 19.36 218.33 19.16C217.93 18.96 217.45 18.85 216.92 18.85C216.4 18.85 215.95 18.96 215.57 19.16C215.24 19.33 214.95 19.57 214.71 19.87L214.63 19.01L212.71 19.01L212.71 30.71L214.78 30.71L214.78 26.7C215.01 26.96 215.27 27.17 215.57 27.32C215.96 27.52 216.41 27.62 216.93 27.62Q217.73 27.62 218.34 27.3C218.75 27.08 219.09 26.78 219.37 26.39C219.65 26 219.85 25.55 220 25.03C220.14 24.5 220.21 23.93 220.21 23.32ZM214.78 25.04C214.92 25.32 215.11 25.55 215.35 25.72Q215.75 26 216.39 26C216.7 26 216.97 25.92 217.2 25.78C217.42 25.64 217.6 25.45 217.75 25.21C217.89 24.96 217.99 24.67 218.05 24.35Q218.14 23.86 218.14 23.32L218.14 23.15C218.14 22.78 218.11 22.43 218.04 22.11C217.97 21.79 217.87 21.51 217.73 21.27C217.59 21.02 217.41 20.83 217.18 20.7C216.96 20.56 216.69 20.5 216.37 20.5C216.05 20.5 215.78 20.55 215.55 20.65Q215.32 20.76 215.15 20.92Q215.06 21 214.99 21.1C214.91 21.2 214.84 21.31 214.78 21.43L214.78 25.04ZM55.24 24.57L53.53 19.01L51.31 19.01L54.29 27.47L54.03 28.17C53.94 28.41 53.84 28.61 53.71 28.76C53.59 28.92 53.44 29.03 53.24 29.1C53.04 29.17 52.79 29.21 52.49 29.21Q52.41 29.21 52.3 29.2C52.23 29.2 52.17 29.2 52.12 29.19L52.12 30.74C52.28 30.78 52.44 30.81 52.58 30.84C52.73 30.86 52.89 30.88 53.08 30.88Q53.73 30.88 54.18 30.67C54.49 30.53 54.75 30.34 54.95 30.12C55.15 29.9 55.31 29.67 55.43 29.42Q55.62 29.06 55.74 28.75L59.13 19.01L56.92 19.01L55.24 24.57ZM74.1 25.04L74.1 19.01L76.17 19.01L76.17 27.46L74.22 27.46L74.17 26.59C73.92 26.9 73.61 27.15 73.24 27.33C72.84 27.52 72.36 27.62 71.82 27.62C71.4 27.62 71.02 27.56 70.67 27.45C70.33 27.33 70.03 27.14 69.78 26.89C69.54 26.64 69.35 26.31 69.21 25.92C69.08 25.52 69.01 25.03 69.01 24.47L69.01 19.01L71.07 19.01L71.07 24.49Q71.07 24.91 71.17 25.19C71.23 25.38 71.33 25.53 71.44 25.65C71.56 25.77 71.7 25.85 71.85 25.9Q72.1 25.97 72.37 25.97C72.87 25.97 73.26 25.87 73.55 25.67C73.79 25.51 73.97 25.3 74.1 25.04ZM99.37 24.71L98.14 19.01L96.14 19.01L98.35 27.46L100.07 27.46L101.77 21.8L103.48 27.46L105.21 27.46L107.41 19.01L105.41 19.01L104.18 24.73L102.53 19.01L101.02 19.01L99.37 24.71ZM163.17 25.04L163.17 19.01L165.25 19.01L165.25 27.46L163.3 27.46L163.25 26.59C163 26.9 162.69 27.15 162.32 27.33C161.91 27.52 161.44 27.62 160.89 27.62C160.48 27.62 160.1 27.56 159.75 27.45C159.41 27.33 159.11 27.14 158.86 26.89C158.62 26.64 158.43 26.31 158.29 25.92C158.16 25.52 158.09 25.03 158.09 24.47L158.09 19.01L160.15 19.01L160.15 24.49Q160.15 24.91 160.25 25.19C160.31 25.38 160.4 25.53 160.52 25.65C160.64 25.77 160.78 25.85 160.93 25.9Q161.17 25.97 161.45 25.97C161.95 25.97 162.34 25.87 162.63 25.67C162.87 25.51 163.05 25.3 163.17 25.04ZM208.82 25.04L208.82 19.01L210.89 19.01L210.89 27.46L208.94 27.46L208.89 26.59C208.64 26.9 208.33 27.15 207.96 27.33C207.56 27.52 207.08 27.62 206.53 27.62C206.12 27.62 205.74 27.56 205.39 27.45C205.05 27.33 204.75 27.14 204.5 26.89C204.26 26.64 204.07 26.31 203.93 25.92C203.8 25.52 203.73 25.03 203.73 24.47L203.73 19.01L205.79 19.01L205.79 24.49Q205.79 24.91 205.89 25.19C205.95 25.38 206.04 25.53 206.16 25.65C206.28 25.77 206.42 25.85 206.57 25.9Q206.82 25.97 207.09 25.97C207.59 25.97 207.98 25.87 208.27 25.67C208.51 25.51 208.69 25.3 208.82 25.04ZM61.7 23.32L61.7 23.16C61.7 22.79 61.73 22.45 61.81 22.14C61.88 21.81 61.99 21.53 62.14 21.28Q62.3 21.02 62.53 20.84Q62.62 20.76 62.73 20.7C62.97 20.55 63.26 20.48 63.59 20.48C63.93 20.48 64.22 20.55 64.46 20.7C64.7 20.84 64.9 21.03 65.05 21.28C65.21 21.53 65.32 21.81 65.39 22.14C65.47 22.45 65.5 22.79 65.5 23.16L65.5 23.32C65.5 23.69 65.47 24.04 65.39 24.36C65.32 24.69 65.21 24.97 65.05 25.21C64.9 25.46 64.7 25.65 64.46 25.79C64.22 25.93 63.94 26 63.6 26C63.27 26 62.97 25.93 62.73 25.79C62.49 25.65 62.29 25.46 62.14 25.21C61.99 24.97 61.88 24.69 61.81 24.36C61.73 24.04 61.7 23.69 61.7 23.32ZM89.45 23.32L89.45 23.16C89.45 22.79 89.48 22.45 89.56 22.14C89.63 21.81 89.74 21.53 89.89 21.28Q90.05 21.02 90.28 20.84Q90.37 20.76 90.48 20.7C90.72 20.55 91.01 20.48 91.34 20.48Q91.85 20.48 92.21 20.7C92.45 20.84 92.65 21.03 92.8 21.28C92.96 21.53 93.07 21.81 93.14 22.14C93.22 22.45 93.25 22.79 93.25 23.16L93.25 23.32C93.25 23.69 93.22 24.04 93.14 24.36C93.07 24.69 92.96 24.97 92.8 25.21C92.65 25.46 92.45 25.65 92.21 25.79C91.97 25.93 91.69 26 91.35 26C91.02 26 90.72 25.93 90.48 25.79C90.24 25.65 90.04 25.46 89.89 25.21C89.74 24.97 89.63 24.69 89.56 24.36C89.48 24.04 89.45 23.69 89.45 23.32ZM196.42 23.32L196.42 23.16C196.42 22.79 196.45 22.45 196.53 22.14C196.6 21.81 196.71 21.53 196.86 21.28Q197.02 21.02 197.25 20.84Q197.34 20.76 197.45 20.7C197.69 20.55 197.97 20.48 198.31 20.48Q198.82 20.48 199.18 20.7C199.42 20.84 199.62 21.03 199.77 21.28C199.93 21.53 200.04 21.81 200.11 22.14C200.19 22.45 200.22 22.79 200.22 23.16L200.22 23.32C200.22 23.69 200.19 24.04 200.11 24.36C200.04 24.69 199.93 24.97 199.77 25.21C199.62 25.46 199.42 25.65 199.18 25.79C198.94 25.93 198.66 26 198.32 26C197.99 26 197.69 25.93 197.45 25.79C197.21 25.65 197.01 25.46 196.86 25.21C196.71 24.97 196.6 24.69 196.53 24.36C196.45 24.04 196.42 23.69 196.42 23.32ZM222.13 25.67C221.91 25.88 221.81 26.14 221.81 26.46C221.81 26.76 221.91 27.02 222.13 27.24C222.34 27.45 222.63 27.55 223 27.55Q223.45 27.55 223.75 27.33Q223.81 27.29 223.86 27.24C224.08 27.02 224.18 26.76 224.18 26.46C224.18 26.14 224.08 25.88 223.86 25.67C223.65 25.45 223.36 25.35 223 25.35Q222.56 25.35 222.26 25.55Q222.19 25.6 222.13 25.67Z" fill="#F6F7F8" fill-opacity="1.000000" fill-rule="evenodd"/>
	<path id="Get Started" d="M357.82 26.55C357.56 26.88 357.26 27.13 356.92 27.32Q356.35 27.62 355.58 27.62C355.07 27.62 354.6 27.51 354.19 27.3C353.79 27.09 353.44 26.79 353.15 26.4C352.87 26.02 352.66 25.56 352.5 25.04C352.36 24.52 352.29 23.95 352.29 23.34L352.29 23.17C352.29 22.53 352.36 21.94 352.5 21.42C352.66 20.89 352.87 20.43 353.16 20.05C353.45 19.67 353.79 19.38 354.2 19.17C354.61 18.96 355.08 18.85 355.6 18.85C356.1 18.85 356.54 18.96 356.92 19.16C357.22 19.32 357.49 19.54 357.72 19.8L357.72 15.46L359.79 15.46L359.79 27.46L357.92 27.46L357.82 26.55ZM357.72 21.48C357.65 21.35 357.57 21.22 357.48 21.11C357.33 20.92 357.14 20.77 356.92 20.66Q356.58 20.5 356.12 20.5C355.8 20.5 355.53 20.57 355.31 20.71C355.09 20.84 354.9 21.03 354.76 21.28C354.62 21.52 354.52 21.8 354.45 22.13C354.39 22.45 354.36 22.8 354.36 23.17L354.36 23.34C354.36 23.7 354.39 24.04 354.45 24.36Q354.54 24.84 354.75 25.21Q354.93 25.5 355.18 25.69Q355.24 25.73 355.29 25.77C355.52 25.9 355.79 25.97 356.11 25.97C356.51 25.97 356.85 25.88 357.11 25.71C357.37 25.53 357.57 25.29 357.72 24.98L357.72 21.48ZM288.93 26.01L288.93 21.58L284.52 21.58L284.52 23.15L286.78 23.15L286.78 25.28C286.69 25.38 286.56 25.47 286.4 25.57C286.24 25.67 286.03 25.76 285.75 25.83C285.49 25.9 285.15 25.93 284.75 25.93Q284.07 25.93 283.54 25.69Q283.35 25.6 283.18 25.47Q282.89 25.26 282.66 24.96C282.43 24.64 282.25 24.25 282.12 23.78C282 23.3 281.93 22.76 281.93 22.15L281.93 21.39C281.93 20.78 281.99 20.25 282.1 19.78Q282.27 19.07 282.6 18.6Q282.84 18.24 283.18 18.01Q283.29 17.93 283.41 17.87C283.73 17.7 284.1 17.62 284.53 17.62Q285.28 17.62 285.75 17.88Q286.03 18.03 286.24 18.25Q286.38 18.4 286.48 18.58C286.65 18.88 286.77 19.22 286.82 19.62L288.92 19.62C288.84 18.9 288.63 18.27 288.29 17.71C287.96 17.16 287.48 16.72 286.85 16.4C286.24 16.08 285.44 15.92 284.48 15.92Q283.4 15.92 282.53 16.29C281.95 16.54 281.45 16.89 281.04 17.36Q280.42 18.07 280.08 19.08Q279.75 20.1 279.75 21.4L279.75 22.15Q279.75 23.46 280.1 24.47Q280.46 25.49 281.1 26.19C281.54 26.66 282.05 27.02 282.65 27.26C283.25 27.5 283.91 27.62 284.64 27.62Q285.89 27.62 286.75 27.35C287.32 27.17 287.78 26.96 288.14 26.71C288.5 26.46 288.76 26.22 288.93 26.01ZM314.78 23.92C314.85 24.1 314.88 24.29 314.88 24.51C314.88 24.79 314.81 25.04 314.66 25.26C314.52 25.48 314.31 25.65 314.02 25.78C313.74 25.9 313.38 25.96 312.94 25.96C312.6 25.96 312.29 25.92 312 25.85C311.7 25.77 311.45 25.66 311.23 25.5C311.02 25.34 310.85 25.14 310.73 24.89C310.62 24.63 310.56 24.32 310.56 23.96L308.4 23.96C308.4 24.58 308.53 25.13 308.79 25.59C309.05 26.05 309.4 26.43 309.84 26.73C310.28 27.03 310.76 27.25 311.3 27.4C311.84 27.55 312.39 27.62 312.94 27.62C313.56 27.62 314.12 27.55 314.62 27.41C315.13 27.27 315.56 27.06 315.92 26.79C316.28 26.52 316.55 26.19 316.75 25.81C316.94 25.42 317.04 24.98 317.04 24.5C317.04 24.03 316.95 23.62 316.79 23.25C316.64 22.89 316.4 22.56 316.08 22.27C315.77 21.98 315.38 21.72 314.9 21.49C314.43 21.26 313.89 21.05 313.26 20.86C312.87 20.74 312.53 20.62 312.23 20.5C311.94 20.38 311.69 20.25 311.5 20.1C311.3 19.96 311.15 19.8 311.05 19.64C310.95 19.48 310.9 19.29 310.9 19.08Q310.9 18.82 310.99 18.58Q311.04 18.45 311.11 18.33C311.26 18.11 311.48 17.93 311.76 17.8C312.05 17.67 312.42 17.6 312.85 17.6Q313.54 17.6 313.98 17.84C314.28 18 314.51 18.21 314.65 18.48C314.8 18.75 314.88 19.06 314.88 19.42L317.02 19.42C317.02 18.76 316.85 18.17 316.51 17.64C316.17 17.12 315.69 16.7 315.07 16.39C314.46 16.09 313.73 15.93 312.89 15.93C312.28 15.93 311.72 16.01 311.22 16.16C310.72 16.31 310.28 16.53 309.91 16.81C309.54 17.08 309.25 17.41 309.05 17.8C308.85 18.19 308.75 18.61 308.75 19.08Q308.75 19.8 309.04 20.35C309.24 20.71 309.5 21.02 309.85 21.3C310.2 21.58 310.6 21.82 311.06 22.03C311.52 22.23 312.01 22.42 312.54 22.59C313.02 22.74 313.41 22.89 313.72 23.03C314.02 23.16 314.26 23.3 314.43 23.45C314.6 23.59 314.72 23.75 314.78 23.92ZM301.93 16.93L299.86 16.93L299.86 19.01L298.57 19.01L298.57 20.5L299.86 20.5L299.86 25.19Q299.86 26.07 300.15 26.61C300.35 26.97 300.62 27.22 300.97 27.39Q301.49 27.62 302.18 27.62Q302.59 27.62 302.91 27.57Q303.24 27.51 303.5 27.42L303.49 25.88C303.41 25.89 303.31 25.91 303.2 25.92Q303.03 25.95 302.82 25.95C302.64 25.95 302.48 25.92 302.34 25.88C302.2 25.83 302.1 25.74 302.04 25.6C301.97 25.47 301.93 25.28 301.93 25.03L301.93 20.5L303.41 20.5L303.41 19.01L301.93 19.01L301.93 16.93ZM321.06 16.93L318.99 16.93L318.99 19.01L317.69 19.01L317.69 20.5L318.99 20.5L318.99 25.19C318.99 25.78 319.09 26.25 319.28 26.61C319.47 26.97 319.74 27.22 320.09 27.39Q320.61 27.62 321.31 27.62Q321.72 27.62 322.04 27.57Q322.36 27.51 322.62 27.42L322.61 25.88C322.54 25.89 322.44 25.91 322.32 25.92Q322.15 25.95 321.95 25.95C321.76 25.95 321.6 25.92 321.47 25.88C321.33 25.83 321.23 25.74 321.16 25.6C321.09 25.47 321.06 25.28 321.06 25.03L321.06 20.5L322.54 20.5L322.54 19.01L321.06 19.01L321.06 16.93ZM341.18 16.93L339.11 16.93L339.11 19.01L337.82 19.01L337.82 20.5L339.11 20.5L339.11 25.19C339.11 25.78 339.21 26.25 339.4 26.61C339.6 26.97 339.87 27.22 340.22 27.39Q340.74 27.62 341.43 27.62Q341.84 27.62 342.16 27.57Q342.49 27.51 342.75 27.42L342.74 25.88C342.66 25.89 342.56 25.91 342.45 25.92Q342.28 25.95 342.07 25.95C341.89 25.95 341.73 25.92 341.59 25.88C341.45 25.83 341.35 25.74 341.29 25.6C341.22 25.47 341.18 25.28 341.18 25.03L341.18 20.5L342.66 20.5L342.66 19.01L341.18 19.01L341.18 16.93ZM292.87 27.31C293.38 27.52 293.96 27.62 294.6 27.62C295.15 27.62 295.64 27.55 296.06 27.4Q296.69 27.17 297.14 26.82C297.44 26.58 297.68 26.33 297.85 26.07L296.82 24.99C296.56 25.32 296.25 25.57 295.89 25.75C295.54 25.91 295.16 26 294.72 26C294.38 26 294.07 25.94 293.8 25.82C293.54 25.69 293.31 25.52 293.11 25.3C292.93 25.08 292.78 24.81 292.68 24.51Q292.59 24.2 292.56 23.86L298.03 23.86L298.03 23C298.03 22.38 297.95 21.82 297.79 21.32C297.64 20.8 297.41 20.37 297.1 20C296.79 19.64 296.41 19.36 295.95 19.16C295.49 18.96 294.96 18.85 294.36 18.85Q293.5 18.85 292.78 19.17C292.3 19.38 291.89 19.67 291.54 20.06Q291.03 20.64 290.75 21.44C290.56 21.97 290.47 22.56 290.47 23.21L290.47 23.53Q290.47 24.39 290.75 25.14Q290.95 25.65 291.27 26.08Q291.41 26.27 291.57 26.44Q291.63 26.5 291.69 26.56Q292.19 27.03 292.87 27.31ZM292.59 22.44C292.61 22.32 292.63 22.21 292.65 22.1C292.73 21.77 292.84 21.48 292.98 21.25Q293.19 20.91 293.49 20.71Q293.52 20.7 293.54 20.68C293.77 20.55 294.04 20.48 294.35 20.48C294.73 20.48 295.04 20.56 295.28 20.73C295.52 20.89 295.69 21.11 295.81 21.39C295.92 21.66 295.99 21.96 296 22.28L296 22.44L292.59 22.44ZM328.64 26.65C328.57 26.74 328.48 26.82 328.39 26.9C328.17 27.11 327.89 27.28 327.57 27.42Q327.08 27.62 326.44 27.62C325.89 27.62 325.41 27.51 324.97 27.29C324.54 27.07 324.2 26.77 323.95 26.39C323.7 26.01 323.57 25.58 323.57 25.1C323.57 24.65 323.66 24.25 323.82 23.91C323.99 23.57 324.24 23.28 324.57 23.04Q325.06 22.68 325.79 22.5C326.28 22.38 326.84 22.32 327.47 22.32L328.57 22.32L328.57 21.77C328.57 21.48 328.52 21.23 328.42 21.03C328.32 20.82 328.17 20.66 327.97 20.54Q327.66 20.37 327.19 20.37Q326.78 20.37 326.47 20.51Q326.23 20.62 326.07 20.8Q326.03 20.85 326 20.91C325.89 21.08 325.83 21.27 325.83 21.49L323.76 21.49C323.76 21.14 323.85 20.81 324.01 20.5C324.18 20.18 324.42 19.9 324.72 19.65C325.04 19.4 325.41 19.21 325.84 19.07C326.28 18.92 326.77 18.85 327.31 18.85Q328.27 18.85 329.02 19.18C329.53 19.4 329.92 19.72 330.21 20.15C330.5 20.58 330.64 21.13 330.64 21.78L330.64 25.47C330.64 25.89 330.67 26.26 330.72 26.56C330.78 26.85 330.86 27.11 330.97 27.33L330.97 27.46L328.87 27.46C328.77 27.25 328.7 26.98 328.64 26.65L328.64 26.65L328.64 26.65ZM328.57 25.08C328.53 25.14 328.5 25.2 328.45 25.27C328.3 25.48 328.09 25.66 327.82 25.82C327.54 25.96 327.23 26.03 326.86 26.03Q326.49 26.03 326.21 25.89Q326.01 25.78 325.87 25.62Q325.82 25.56 325.79 25.5Q325.76 25.45 325.74 25.41Q325.64 25.19 325.64 24.93C325.64 24.72 325.68 24.53 325.76 24.36C325.84 24.19 325.96 24.04 326.11 23.92C326.27 23.8 326.47 23.71 326.72 23.64C326.96 23.58 327.24 23.54 327.57 23.54L328.57 23.54L328.57 25.08ZM337.11 20.88L337.14 18.96C337.06 18.92 336.95 18.9 336.82 18.89C336.69 18.86 336.56 18.85 336.45 18.85C336.04 18.85 335.67 18.95 335.36 19.14C335.04 19.33 334.78 19.6 334.57 19.94C334.56 19.97 334.54 20 334.52 20.03L334.46 19.01L332.5 19.01L332.5 27.46L334.57 27.46L334.57 21.79C334.65 21.61 334.75 21.45 334.88 21.32C335.04 21.15 335.24 21.03 335.48 20.95C335.72 20.86 336 20.82 336.32 20.82Q336.5 20.82 336.72 20.83C336.86 20.84 336.99 20.86 337.11 20.88ZM346.11 27.31C346.62 27.52 347.19 27.62 347.83 27.62C348.38 27.62 348.87 27.55 349.29 27.4Q349.93 27.17 350.37 26.82C350.67 26.58 350.91 26.33 351.09 26.07L350.05 24.99C349.79 25.32 349.48 25.57 349.13 25.75C348.78 25.91 348.39 26 347.96 26C347.61 26 347.31 25.94 347.04 25.82C346.77 25.69 346.54 25.52 346.35 25.3C346.16 25.08 346.02 24.81 345.92 24.51Q345.82 24.2 345.79 23.86L351.26 23.86L351.26 23C351.26 22.38 351.18 21.82 351.03 21.32C350.87 20.8 350.64 20.37 350.33 20C350.03 19.64 349.64 19.36 349.18 19.16C348.73 18.96 348.2 18.85 347.6 18.85C347.02 18.85 346.49 18.96 346.01 19.17C345.53 19.38 345.12 19.67 344.78 20.06Q344.26 20.64 343.98 21.44C343.79 21.97 343.7 22.56 343.7 23.21L343.7 23.53Q343.7 24.39 343.98 25.14Q344.18 25.65 344.5 26.08Q344.64 26.27 344.8 26.44C345.16 26.81 345.6 27.1 346.11 27.31ZM345.83 22.44C345.84 22.32 345.86 22.21 345.89 22.1C345.96 21.77 346.07 21.48 346.22 21.25Q346.42 20.91 346.73 20.71Q346.75 20.7 346.78 20.68C347.01 20.55 347.28 20.48 347.58 20.48C347.96 20.48 348.27 20.56 348.51 20.73C348.75 20.89 348.93 21.11 349.04 21.39C349.16 21.66 349.22 21.96 349.23 22.28L349.23 22.44L345.83 22.44Z" fill="#FFFFFF" fill-opacity="1.000000" fill-rule="evenodd"/>
	<rect id="Link" rx="5.000000" width="117.000000" height="42.000000" transform="translate(265.969727 1.000000)" stroke="#FFFFFF" stroke-opacity="1.000000" stroke-width="2.000000"/>
	<rect id="div.mt-2" rx="0.000000" width="1119.000000" height="68.000000" transform="translate(0.500000 0.500000)" stroke="#707070" stroke-opacity="1.000000" stroke-width="1.000000"/>
</svg>
