<svg width="22.000000" height="22.000000" viewBox="0 0 22 22" fill="none" xmlns="http://www.w3.org/2000/svg" xmlns:xlink="http://www.w3.org/1999/xlink">
	<desc>
			Created with Pixso.
	</desc>
	<defs>
		<clipPath id="clip2_2455">
			<rect id="SVG" rx="0.000000" width="21.000000" height="21.000000" transform="translate(0.500000 0.500000)" fill="white" fill-opacity="0"/>
		</clipPath>
	</defs>
	<g clip-path="url(#clip2_2455)">
		<path id="Vector" d="M15.12 9.62C15.12 12.66 12.66 15.12 9.62 15.12C6.58 15.12 4.12 12.66 4.12 9.62C4.12 6.58 6.58 4.12 9.62 4.12C12.66 4.12 15.12 6.58 15.12 9.62ZM16.5 9.62C16.5 13.42 13.42 16.5 9.62 16.5C5.82 16.5 2.75 13.42 2.75 9.62C2.75 5.82 5.82 2.75 9.62 2.75C13.42 2.75 16.5 5.82 16.5 9.62ZM15.09 16.06L14.62 15.59C14.97 15.3 15.3 14.97 15.59 14.62L16.06 15.09L18.81 17.84C19.08 18.11 19.08 18.55 18.81 18.81C18.55 19.08 18.11 19.08 17.84 18.81L15.09 16.06Z" fill="#707070" fill-opacity="1.000000" fill-rule="evenodd"/>
	</g>
</svg>
